<?xml version="1.0" standalone="no"?>
<!DOCTYPE svg PUBLIC "-//W3C//DTD SVG 20010904//EN"
 "http://www.w3.org/TR/2001/REC-SVG-20010904/DTD/svg10.dtd">
<svg version="1.0" xmlns="http://www.w3.org/2000/svg"
 width="162.000000pt" height="157.000000pt" viewBox="0 0 162.000000 157.000000"
 preserveAspectRatio="xMidYMid meet">

<g transform="translate(0.000000,157.000000) scale(0.100000,-0.100000)"
fill="#000000" stroke="none">
<path d="M263 1548 c-12 -28 1 -65 28 -73 32 -10 69 6 76 33 9 37 -8 57 -54
60 -33 2 -41 -1 -50 -20z"/>
<path d="M510 1561 c0 -18 31 -41 55 -41 24 0 55 23 55 41 0 5 -25 9 -55 9
-30 0 -55 -4 -55 -9z"/>
<path d="M1015 1559 c-11 -17 4 -58 26 -70 42 -22 98 18 84 62 -5 15 -16 19
-55 19 -27 0 -52 -5 -55 -11z"/>
<path d="M1347 1552 c-10 -10 -17 -28 -17 -40 0 -22 35 -62 55 -62 20 0 55 40
55 64 0 48 -61 73 -93 38z"/>
<path d="M1520 1566 c0 -3 7 -12 16 -20 22 -22 44 -20 44 4 0 16 -7 20 -30 20
-16 0 -30 -2 -30 -4z"/>
<path d="M944 1505 c-4 -9 -2 -21 4 -27 15 -15 44 -1 40 19 -4 23 -36 29 -44
8z"/>
<path d="M1174 1355 c-19 -30 -11 -60 22 -82 24 -15 27 -15 52 4 33 25 38 47
18 78 -22 34 -70 34 -92 0z"/>
<path d="M507 1364 c-16 -16 -7 -44 14 -44 15 0 20 5 17 22 -3 22 -19 33 -31
22z"/>
<path d="M914 1355 c-4 -9 -2 -21 4 -27 15 -15 44 -1 40 19 -4 23 -36 29 -44
8z"/>
<path d="M1444 1325 c-4 -9 -2 -21 4 -27 15 -15 44 -1 40 19 -4 23 -36 29 -44
8z"/>
<path d="M716 1314 c-25 -24 -20 -69 9 -88 13 -9 28 -16 33 -16 18 0 52 42 52
64 0 47 -61 73 -94 40z"/>
<path d="M170 1258 c-26 -28 -25 -49 3 -76 30 -28 48 -28 75 1 27 29 28 51 2
77 -26 26 -54 25 -80 -2z"/>
<path d="M1553 1216 c-30 -37 -30 -91 0 -136 l22 -35 3 53 c2 29 2 74 0 100
l-3 47 -22 -29z"/>
<path d="M1014 1175 c-4 -9 -2 -21 4 -27 15 -15 44 -1 40 19 -4 23 -36 29 -44
8z"/>
<path d="M1324 1165 c-7 -18 3 -35 21 -35 21 0 28 19 15 35 -16 19 -29 19 -36
0z"/>
<path d="M693 1159 c-17 -5 -43 -24 -58 -41 -24 -28 -27 -39 -22 -82 3 -40 11
-55 36 -78 43 -38 74 -44 122 -23 44 20 79 69 79 110 0 43 -35 91 -80 109 -22
9 -41 16 -43 15 -1 0 -16 -5 -34 -10z"/>
<path d="M1069 1107 c-49 -25 -30 -107 25 -107 41 0 70 53 48 86 -16 24 -48
33 -73 21z"/>
<path d="M300 1065 c-10 -11 -10 -19 -2 -27 15 -15 44 -2 40 19 -4 23 -22 27
-38 8z"/>
<path d="M476 994 c-9 -8 -16 -26 -16 -39 0 -50 60 -73 93 -37 34 37 11 92
-38 92 -13 0 -31 -7 -39 -16z"/>
<path d="M1225 970 c-29 -56 26 -101 80 -66 47 31 21 96 -38 96 -19 0 -31 -8
-42 -30z"/>
<path d="M882 960 c-27 -26 -28 -54 -2 -80 27 -27 54 -25 78 5 23 29 19 59
-11 80 -28 20 -39 19 -65 -5z"/>
<path d="M236 934 c-34 -34 -9 -94 39 -94 50 0 73 60 37 93 -23 21 -56 22 -76
1z"/>
<path d="M1486 934 c-9 -8 -16 -26 -16 -39 0 -13 7 -31 16 -39 8 -9 26 -16 39
-16 13 0 31 7 39 16 9 8 16 26 16 39 0 13 -7 31 -16 39 -8 9 -26 16 -39 16
-13 0 -31 -7 -39 -16z"/>
<path d="M1307 832 c-29 -32 -21 -69 19 -90 31 -17 68 6 72 44 5 56 -55 86
-91 46z"/>
<path d="M657 833 c-15 -14 -7 -43 12 -43 26 0 36 17 21 35 -14 16 -23 19 -33
8z"/>
<path d="M1154 825 c-4 -9 -2 -21 4 -27 15 -15 44 -1 40 19 -4 23 -36 29 -44
8z"/>
<path d="M1444 825 c-4 -9 -2 -21 4 -27 15 -15 44 -1 40 19 -4 23 -36 29 -44
8z"/>
<path d="M316 782 c-30 -59 43 -112 87 -64 35 38 8 92 -46 92 -19 0 -31 -8
-41 -28z"/>
<path d="M882 757 c-29 -17 -62 -70 -62 -102 0 -53 70 -125 121 -125 35 0 97
41 110 72 19 46 5 108 -31 141 -34 30 -96 37 -138 14z"/>
<path d="M557 693 c-15 -14 -7 -43 12 -43 26 0 36 17 21 35 -14 16 -23 19 -33
8z"/>
<path d="M1420 678 c-26 -28 -25 -49 3 -76 30 -28 48 -28 75 1 27 29 28 51 2
77 -26 26 -54 25 -80 -2z"/>
<path d="M690 675 c-11 -13 -11 -19 3 -33 20 -19 41 -5 35 24 -4 24 -22 28
-38 9z"/>
<path d="M1224 658 c-23 -11 -64 -76 -64 -102 0 -32 35 -87 67 -106 43 -25 64
-25 112 -1 105 54 66 222 -52 220 -23 0 -52 -5 -63 -11z"/>
<path d="M676 504 c-20 -20 -20 -58 0 -78 20 -20 58 -20 78 0 34 34 9 94 -39
94 -13 0 -31 -7 -39 -16z"/>
<path d="M524 495 c-4 -9 -2 -21 4 -27 15 -15 44 -1 40 19 -4 23 -36 29 -44 8z"/>
<path d="M1030 425 c-20 -21 -22 -30 -14 -52 5 -16 21 -32 37 -37 22 -8 31 -6
52 14 31 29 32 50 2 78 -30 28 -48 28 -77 -3z"/>
<path d="M1353 370 c-39 -16 -65 -69 -59 -120 3 -37 11 -51 42 -77 42 -37 78
-42 124 -18 68 35 89 108 50 173 -29 48 -97 66 -157 42z"/>
</g>
</svg>
