<svg width="101" height="101" viewBox="0 0 101 101" fill="none" xmlns="http://www.w3.org/2000/svg">
<circle cx="50.5" cy="50.5" r="50.5" fill="#DC4242"/>
<mask id="mask0_793_1584" style="mask-type:luminance" maskUnits="userSpaceOnUse" x="13" y="34" width="75" height="32">
<path d="M87.4 34H13V66H87.4V34Z" fill="white"/>
</mask>
<g mask="url(#mask0_793_1584)">
<path d="M50.5944 46.1926C50.5944 45.6628 50.1723 45.2332 49.6517 45.2332C49.1311 45.2332 48.709 45.6628 48.709 46.1926V54.0455C48.709 54.5753 49.1311 55.0049 49.6517 55.0049C50.1723 55.0049 50.5944 54.5753 50.5944 54.0455V46.1926Z" fill="#FFCA42"/>
<path d="M53.7761 47.9914C53.7761 47.4616 53.354 47.032 52.8333 47.032C52.3127 47.032 51.8906 47.4616 51.8906 47.9914V52.2465C51.8906 52.7765 52.3127 53.2061 52.8333 53.2061C53.354 53.2061 53.7761 52.7765 53.7761 52.2465V47.9914Z" fill="white"/>
<path d="M47.4459 47.9914C47.4459 47.4616 47.0239 47.032 46.5033 47.032C45.9826 47.032 45.5605 47.4616 45.5605 47.9914V52.2465C45.5605 52.7765 45.9826 53.2061 46.5033 53.2061C47.0239 53.2061 47.4459 52.7765 47.4459 52.2465V47.9914Z" fill="white"/>
<path d="M45.1542 55.1478C45.5286 55.931 45.2076 56.8752 44.4371 57.2563C42.4871 58.2214 40.5923 59.5944 38.7602 60.9226C37.1781 62.0698 35.5418 63.256 33.8998 64.1478C31.9478 65.2082 30.1776 65.7418 28.485 65.778C28.3774 65.7799 28.2706 65.7818 28.163 65.7818C26.1962 65.7818 24.2761 65.3921 22.4496 64.6213C20.6063 63.8429 18.939 62.7129 17.4936 61.2618C16.0585 59.8193 14.9182 58.1376 14.1057 56.2606C13.2725 54.3342 12.8241 52.2952 12.7754 50.199C12.7754 50.1934 12.7754 50.1866 12.7754 50.181C12.7754 50.1714 12.7754 50.1619 12.7754 50.1523C12.7754 50.1305 12.7754 50.1076 12.7754 50.0857C12.7754 50.0704 12.7754 50.0552 12.7773 50.039C12.8269 47.9438 13.2744 45.9049 14.1085 43.9783C14.9211 42.1023 16.0613 40.4187 17.4964 38.9772C18.9409 37.5261 20.6082 36.3951 22.4524 35.6167C24.3753 34.8049 26.4058 34.4162 28.485 34.461C30.1766 34.4981 31.9478 35.0308 33.8998 36.0912C35.5418 36.984 37.1781 38.1692 38.7602 39.3164C40.5923 40.6445 42.4871 42.0175 44.4371 42.9826C45.2076 43.3638 45.5278 44.308 45.1542 45.0912C44.7798 45.8744 43.852 46.2012 43.0825 45.821C40.8994 44.7415 38.8978 43.2904 36.9619 41.887C33.9737 39.7213 31.1522 37.6757 28.4195 37.6166C25.1645 37.5461 22.0574 38.8276 19.672 41.2248C17.3008 43.6077 15.9527 46.7652 15.8741 50.1209C15.9518 53.4766 17.2998 56.6342 19.672 59.017C22.0574 61.4133 25.1635 62.6938 28.4195 62.6252C31.1512 62.5662 33.9737 60.5206 36.9619 58.3549C38.8978 56.9514 40.8994 55.5003 43.0825 54.4208C43.852 54.0397 44.7798 54.3665 45.1542 55.1506V55.1478Z" fill="white"/>
<path d="M54.3425 55.1478C53.968 55.931 54.2891 56.8752 55.0596 57.2563C57.0096 58.2214 58.9044 59.5944 60.7364 60.9226C62.3186 62.0698 63.955 63.256 65.597 64.1478C67.5488 65.2082 69.3191 65.7418 71.0117 65.778C71.1194 65.7799 71.2261 65.7818 71.3337 65.7818C73.3006 65.7818 75.2206 65.3921 77.047 64.6213C78.8903 63.8429 80.5576 62.7129 82.003 61.2618C83.4382 59.8193 84.5784 58.1376 85.391 56.2606C86.2251 54.335 86.6726 52.2961 86.7222 50.2C86.7222 50.1943 86.7222 50.1876 86.7222 50.1819C86.7222 50.1724 86.7222 50.1629 86.7222 50.1533C86.7222 50.1314 86.7222 50.1086 86.7222 50.0866C86.7222 50.0714 86.7222 50.0562 86.7203 50.0399C86.6707 47.9448 86.2233 45.9058 85.3891 43.9793C84.5766 42.1033 83.4363 40.4197 82.0012 38.9781C80.5567 37.527 78.8894 36.3961 77.0452 35.6177C75.1214 34.8049 73.0899 34.4162 71.0107 34.461C69.3191 34.4981 67.5479 35.0308 65.596 36.0912C63.954 36.984 62.3176 38.1692 60.7355 39.3164C58.9034 40.6445 57.0086 42.0175 55.0586 42.9826C54.2882 43.3638 53.968 44.308 54.3415 45.0912C54.716 45.8744 55.6438 46.2012 56.4133 45.821C58.5964 44.7415 60.5978 43.2904 62.5338 41.887C65.5221 39.7213 68.3436 37.6757 71.0762 37.6166C74.3313 37.5461 77.4384 38.8276 79.8237 41.2248C82.195 43.6077 83.543 46.7652 83.6217 50.1209C83.544 53.4766 82.1959 56.6342 79.8237 59.017C77.4384 61.4133 74.3322 62.6938 71.0762 62.6252C68.3446 62.5662 65.5221 60.5206 62.5338 58.3549C60.5978 56.9514 58.5964 55.5003 56.4133 54.4208C55.6438 54.0397 54.716 54.3665 54.3415 55.1506L54.3425 55.1478Z" fill="white"/>
</g>
</svg>
